<svg xmlns="http://www.w3.org/2000/svg" viewBox="0 0 64 64">
  <!-- The Holiness Institute — simplified Sacred Heart mark -->
  <circle cx="32" cy="32" r="30" fill="#faf6ee"/>
  <circle cx="32" cy="32" r="29" fill="none" stroke="#b08d3e" stroke-width="2.5"/>
  <!-- Cross -->
  <rect x="29.5" y="9" width="5" height="14" fill="#b08d3e"/>
  <rect x="24" y="13" width="16" height="5" fill="#b08d3e"/>
  <!-- Heart -->
  <path d="M32 52 C 20 43, 14 35, 16 28.5 C 17.5 23.5, 23 21.5, 27.5 24.5 C 29.5 25.8, 31 27.5, 32 29.5 C 33 27.5, 34.5 25.8, 36.5 24.5 C 41 21.5, 46.5 23.5, 48 28.5 C 50 35, 44 43, 32 52 Z" fill="#7a1f1f"/>
  <!-- Crown of thorns -->
  <path d="M19 33.5 C 26 30, 38 30, 45 33.5" fill="none" stroke="#b08d3e" stroke-width="2.2"/>
</svg>
